<?xml version="1.0" encoding="UTF-8" standalone="no"?>
<svg width="300px" height="300px" viewBox="0 0 300 300" version="1.1" xmlns="http://www.w3.org/2000/svg" xmlns:xlink="http://www.w3.org/1999/xlink" xmlns:sketch="http://www.bohemiancoding.com/sketch/ns">
    <!-- Generator: Sketch 3.3.2 (12043) - http://www.bohemiancoding.com/sketch -->
    <title>akbar</title>
    <desc>Created with Sketch.</desc>
    <defs></defs>
    <g id="Page-1" stroke="none" stroke-width="1" fill="none" fill-rule="evenodd" sketch:type="MSPage" opacity="0.5">
        <g id="akbar" sketch:type="MSArtboardGroup">
            <rect id="Rectangle-1" fill="#FFFFFF" sketch:type="MSShapeGroup" x="0" y="0" width="300" height="300"></rect>
            <path d="M244.357791,115.431119 C241.349419,110.138976 237.440814,106.821429 233.116279,106.821429 C223.185233,67.4205714 191.038953,30 162.727209,30 C157.650581,30 152.585349,31.2348333 147.651163,33.4313571 C142.716977,31.2348333 137.651744,30 132.575116,30 C104.263372,30 72.1227907,67.4205714 62.1860465,106.821429 C57.8615116,106.821429 53.952907,110.138976 50.9445349,115.431119 C37.6233721,115.829452 28,129.998738 28,149.5 C28,169.285786 37.8854651,183.642857 51.502907,183.642857 C54.1865116,183.642857 56.6763953,182.942929 59.0238372,181.89019 C65.0747674,199.980214 76.1681395,205.494286 83.5523256,207.127452 L83.5523256,234.857143 C83.5523256,237.21869 85.4610465,239.125 87.8255814,239.125 C90.1901163,239.125 92.0988372,237.21869 92.0988372,234.857143 L92.0988372,225.02969 C98.2694186,236.074905 110.701744,244.815476 126.284884,249.077643 L126.284884,256.196429 C126.284884,258.557976 128.193605,260.464286 130.55814,260.464286 C132.922674,260.464286 134.831395,258.557976 134.831395,256.196429 L134.831395,250.921357 C137.61186,251.353833 140.472093,251.626976 143.377907,251.774929 L143.377907,264.732143 C143.377907,267.09369 145.286628,269 147.651163,269 C150.015698,269 151.924419,267.09369 151.924419,264.732143 L151.924419,251.774929 C154.830233,251.626976 157.690465,251.353833 160.47093,250.921357 L160.47093,256.196429 C160.47093,258.557976 162.379651,260.464286 164.744186,260.464286 C167.108721,260.464286 169.017442,258.557976 169.017442,256.196429 L169.017442,249.077643 C184.600581,244.815476 197.032907,236.074905 203.203488,225.02969 L203.203488,234.857143 C203.203488,237.21869 205.112209,239.125 207.476744,239.125 C209.841279,239.125 211.75,237.21869 211.75,234.857143 L211.75,207.127452 C219.17407,205.477214 230.244651,199.940381 236.278488,181.89019 C238.631628,182.942929 241.115814,183.642857 243.799419,183.642857 C257.41686,183.642857 267.302326,169.285786 267.302326,149.5 C267.302326,129.998738 257.678953,115.829452 244.357791,115.431119 L244.357791,115.431119 Z M51.502907,170.839286 C45.6001163,170.839286 40.8197674,161.284976 40.8197674,149.5 C40.8197674,142.4495 42.5518605,136.246881 45.1898837,132.360286 C51.3490698,133.908095 58.887093,139.718071 61.337093,157.853619 C59.7075581,165.484548 55.9186047,170.839286 51.502907,170.839286 L51.502907,170.839286 Z M174.139651,124.513119 C176.293372,122.356429 183.455349,126.015405 190.133023,132.678952 C196.805,139.34819 200.468605,146.501119 198.309186,148.652119 C196.155465,150.80881 188.993488,147.149833 182.315814,140.486286 C175.643837,133.817048 171.980233,126.664119 174.139651,124.513119 L174.139651,124.513119 Z M105.397209,132.678952 C112.074884,126.015405 119.23686,122.356429 121.390581,124.513119 C123.55,126.664119 119.886395,133.817048 113.214419,140.486286 C106.536744,147.149833 99.3747674,150.80881 97.2210465,148.652119 C95.0616279,146.501119 98.7252326,139.34819 105.397209,132.678952 L105.397209,132.678952 Z M207.117791,190.653524 C206.610698,190.72181 206.097907,190.755952 205.596512,190.755952 C195.984535,190.755952 187.774186,178.89131 186.828372,177.474381 C171.188256,154.041 147.884767,153.767857 147.651163,153.767857 C146.711047,153.773548 124.005814,154.200333 108.473953,177.474381 C107.482558,178.965286 98.3776744,191.92819 88.1845349,190.653524 C82.4754651,189.88531 78.1110465,185.111 75.2223256,176.455786 L83.335814,173.7585 C85.0280233,178.834405 87.2102326,181.907262 89.3126744,182.191786 C92.9306977,182.709619 98.6112791,176.842738 101.363256,172.728524 C119.516047,145.55081 146.50593,145.232143 147.651163,145.232143 C148.796395,145.232143 175.786279,145.55081 193.93907,172.739905 C196.702442,176.842738 202.576744,182.709619 205.989651,182.191786 C208.092093,181.907262 210.274302,178.834405 211.966512,173.7585 L220.08,176.455786 C217.191279,185.111 212.82686,189.88531 207.117791,190.653524 L207.117791,190.653524 Z M243.799419,170.839286 C239.383721,170.839286 235.594767,165.484548 233.965233,157.853619 C236.415233,139.718071 243.953256,133.908095 250.112442,132.360286 C252.750465,136.246881 254.482558,142.4495 254.482558,149.5 C254.482558,161.284976 249.702209,170.839286 243.799419,170.839286 L243.799419,170.839286 Z" id="Imported-Layers" fill="#264A62" sketch:type="MSShapeGroup"></path>
        </g>
    </g>
</svg>