<?xml version="1.0" encoding="UTF-8" standalone="no"?>
<svg width="300px" height="300px" viewBox="0 0 300 300" version="1.1" xmlns="http://www.w3.org/2000/svg" xmlns:xlink="http://www.w3.org/1999/xlink" xmlns:sketch="http://www.bohemiancoding.com/sketch/ns">
    <!-- Generator: Sketch 3.3.2 (12043) - http://www.bohemiancoding.com/sketch -->
    <title>atat</title>
    <desc>Created with Sketch.</desc>
    <defs></defs>
    <g id="Page-1" stroke="none" stroke-width="1" fill="none" fill-rule="evenodd" sketch:type="MSPage" opacity="0.5">
        <g id="atat" sketch:type="MSArtboardGroup">
            <rect id="Rectangle-1" fill="#FFFFFF" sketch:type="MSShapeGroup" x="0" y="0" width="300" height="300"></rect>
            <path d="M68.44,96 C68.44,100.253143 64.96732,103.714286 60.7,103.714286 C56.43268,103.714286 52.96,100.253143 52.96,96 C52.96,91.7468571 56.43268,88.2857143 60.7,88.2857143 C64.96732,88.2857143 68.44,91.7468571 68.44,96 L68.44,96 Z M99.4,107.571429 L107.14,107.571429 L107.14,76.7142857 L99.4,76.7142857 L99.4,107.571429 Z M222.68788,176.979429 C223.01296,178.224 223.24,179.509714 223.24,180.857143 C223.24,185.161714 221.46496,189.049714 218.61148,191.847429 L216.08308,227.142857 L192.80632,227.142857 L195.45856,190.129714 C193.4926,187.542857 192.28,184.354286 192.28,180.857143 C192.28,174.387429 196.28416,168.869143 201.94468,166.575429 L212.92,144.697714 L227.11,154.129714 L227.11,168.159429 L222.68788,176.979429 L222.68788,176.979429 Z M215.5,180.857143 C215.5,176.604 212.02732,173.142857 207.76,173.142857 C203.49268,173.142857 200.02,176.604 200.02,180.857143 C200.02,185.110286 203.49268,188.571429 207.76,188.571429 C212.02732,188.571429 215.5,185.110286 215.5,180.857143 L215.5,180.857143 Z M225.42268,111.428571 L269.68,111.428571 L269.68,65.1428571 L230.98,52.4142857 L223.24,42 L169.06,42 L161.32,52.4142857 L130.36,65.1428571 L130.36,111.428571 L225.42268,111.428571 L225.42268,111.428571 Z M76.18,119.142857 L25.87,119.142857 C23.73376,119.142857 22,117.414857 22,115.285714 C22,113.156571 23.73376,111.428571 25.87,111.428571 L37.48,111.428571 L37.48,103.714286 L23.935,103.714286 C22.86688,103.714286 22,102.850286 22,101.785714 C22,100.721143 22.86688,99.8571429 23.935,99.8571429 L37.48,99.8571429 L37.48,88.2857143 L60.7,72.8571429 L91.66,72.8571429 L91.66,111.428571 L83.92,111.428571 L76.18,119.142857 L76.18,119.142857 Z M72.31,96 C72.31,89.6125714 67.11388,84.4285714 60.7,84.4285714 C54.28612,84.4285714 49.09,89.6125714 49.09,96 C49.09,102.392571 54.28612,107.571429 60.7,107.571429 C67.11388,107.571429 72.31,102.392571 72.31,96 L72.31,96 Z M244.58692,227.142857 L237.48676,193.390286 C233.56,190.587429 230.98,186.036 230.98,180.857143 C230.98,176.974286 232.47124,173.461714 234.85,170.751429 L234.85,150 L211.63,134.571429 L174.865,134.571429 L151.97008,152.828571 L144.61192,174.829714 C145.4014,176.681143 145.84,178.717714 145.84,180.857143 C145.84,184.992 144.14236,188.674286 141.47464,191.425714 L161.46448,200.806286 L151.39732,221.665714 L131.49004,212.1 L126.103,227.142857 L101.44336,227.142857 L115.99456,186.54 C115.2928,184.776 114.88,182.868 114.88,180.857143 C114.88,175.189714 117.98116,170.283429 122.55808,167.604 L131.58808,140.598857 C130.7986,138.747429 130.36,136.710857 130.36,134.571429 C130.36,126.049714 137.28988,119.142857 145.84,119.142857 L267.46636,119.142857 L258.07,151.928571 L258.07,170.751429 C260.44876,173.461714 261.94,176.974286 261.94,180.857143 C261.94,183.577714 261.17632,186.092571 259.93792,188.309143 L268.2868,227.142857 L244.58692,227.142857 L244.58692,227.142857 Z M138.1,180.857143 C138.1,176.604 134.62732,173.142857 130.36,173.142857 C126.09268,173.142857 122.62,176.604 122.62,180.857143 C122.62,185.110286 126.09268,188.571429 130.36,188.571429 C134.62732,188.571429 138.1,185.110286 138.1,180.857143 L138.1,180.857143 Z M153.58,134.571429 C153.58,130.318286 150.10732,126.857143 145.84,126.857143 C141.57268,126.857143 138.1,130.318286 138.1,134.571429 C138.1,138.824571 141.57268,142.285714 145.84,142.285714 C150.10732,142.285714 153.58,138.824571 153.58,134.571429 L153.58,134.571429 Z M238.72,134.571429 C238.72,138.824571 242.19268,142.285714 246.46,142.285714 C250.72732,142.285714 254.2,138.824571 254.2,134.571429 C254.2,130.318286 250.72732,126.857143 246.46,126.857143 C242.19268,126.857143 238.72,130.318286 238.72,134.571429 L238.72,134.571429 Z M246.46,188.571429 C250.72732,188.571429 254.2,185.110286 254.2,180.857143 C254.2,176.604 250.72732,173.142857 246.46,173.142857 C242.19268,173.142857 238.72,176.604 238.72,180.857143 C238.72,185.110286 242.19268,188.571429 246.46,188.571429 L246.46,188.571429 Z M114.88,107.571429 L122.62,107.571429 L122.62,76.7142857 L114.88,76.7142857 L114.88,107.571429 Z M174.72052,200.034857 L169.13224,202.704 L156.55216,228.773143 L157.94536,234.790286 L168.40468,239.809714 L185.17984,205.049143 L174.72052,200.034857 L174.72052,200.034857 Z M272.57992,234.857143 L243.55492,234.857143 L238.72,238.714286 L238.72,250.285714 L277.42,250.285714 L277.42,238.714286 L272.57992,234.857143 L272.57992,234.857143 Z M189.38008,234.857143 L184.54,238.714286 L184.54,250.285714 L223.24,250.285714 L223.24,238.714286 L218.39992,234.857143 L189.38008,234.857143 L189.38008,234.857143 Z M96.50008,234.857143 L91.66,238.714286 L91.66,250.285714 L130.36,250.285714 L130.36,238.714286 L125.52508,234.857143 L96.50008,234.857143 L96.50008,234.857143 Z M91.66,196.285714 C83.10988,196.285714 76.18,189.378857 76.18,180.857143 C76.18,172.335429 83.10988,165.428571 91.66,165.428571 C91.72708,165.428571 91.789,165.449143 91.86124,165.449143 L124.42084,137.631429 L116.03068,162.728571 C110.48368,167.084571 107.14,173.785714 107.14,180.857143 C107.14,182.718857 107.3722,184.570286 107.83144,186.390857 L103.27516,199.093714 L95.88604,195.632571 C94.53412,196.013143 93.13576,196.285714 91.66,196.285714 L91.66,196.285714 Z M91.66,188.571429 C95.92732,188.571429 99.4,185.110286 99.4,180.857143 C99.4,176.604 95.92732,173.142857 91.66,173.142857 C87.39268,173.142857 83.92,176.604 83.92,180.857143 C83.92,185.110286 87.39268,188.571429 91.66,188.571429 L91.66,188.571429 Z" id="Imported-Layers" fill="#264A62" sketch:type="MSShapeGroup"></path>
        </g>
    </g>
</svg>