<?xml version="1.0" encoding="UTF-8" standalone="no"?>
<svg width="300px" height="300px" viewBox="0 0 300 300" version="1.1" xmlns="http://www.w3.org/2000/svg" xmlns:xlink="http://www.w3.org/1999/xlink" xmlns:sketch="http://www.bohemiancoding.com/sketch/ns">
    <!-- Generator: Sketch 3.3.2 (12043) - http://www.bohemiancoding.com/sketch -->
    <title>boba</title>
    <desc>Created with Sketch.</desc>
    <defs></defs>
    <g id="Page-1" stroke="none" stroke-width="1" fill="none" fill-rule="evenodd" sketch:type="MSPage">
        <g id="boba" sketch:type="MSArtboardGroup">
            <rect id="Rectangle-1" fill="#FFFFFF" sketch:type="MSShapeGroup" x="0" y="0" width="300" height="300"></rect>
            <path d="M251.116279,132.857143 L173.883721,146.571429 L173.883721,270 L139.55814,270 L139.55814,146.571429 L62.3255814,132.857143 L62.3255814,124.285714 L251.116279,124.285714 L251.116279,132.857143 L251.116279,132.857143 Z M53.744186,150.714286 L53.744186,107.931429 L53.5954419,107.931429 L53.744186,47.1428571 L70.9069767,47.1428571 C75.6496279,47.1428571 79.4883721,43.3085714 79.4883721,38.5714286 C79.4883721,33.8342857 75.6496279,30 70.9069767,30 L36.5813953,30 C31.8387442,30 28,33.8342857 28,38.5714286 C28,43.3085714 31.8387442,47.1428571 36.5813953,47.1428571 L45.1627907,47.1428571 L45.1627907,107.931429 C40.1855814,109.702857 36.5813953,114.411429 36.5813953,120 L36.5813953,154.285714 C36.5813953,161.382857 42.348093,167.142857 49.4534884,167.142857 C50.1228372,167.142857 50.7807442,167.04 51.4329302,166.942857 L45.1627907,235.714286 L119.277442,270 L130.976744,270 C130.976744,190.971429 88.27,155.742857 53.744186,150.714286 L53.744186,150.714286 Z M62.7088837,107.142857 C66.4961395,58.2571429 102.938465,30 156.72093,30 C210.520558,30 246.945721,58.2571429 250.744419,107.142857 L62.7088837,107.142857 L62.7088837,107.142857 Z M182.499442,64.52 C182.196233,68.9257143 183.803814,73.4114286 187.442326,76.7771429 C194.164419,82.9885714 205.091395,82.9885714 211.813488,76.7771429 C215.469163,73.4114286 217.059581,68.9257143 216.756372,64.52 C206.96786,72.5542857 192.270791,72.5542857 182.499442,64.52 L182.499442,64.52 Z M259.766326,150.702857 C225.240512,155.702857 182.465116,190.925714 182.465116,270 L194.181581,270 L268.27907,235.714286 L259.766326,150.702857 L259.766326,150.702857 Z" id="Imported-Layers" fill="#264A62" sketch:type="MSShapeGroup"></path>
        </g>
    </g>
</svg>