<?xml version="1.0" encoding="UTF-8" standalone="no"?>
<svg width="300px" height="300px" viewBox="0 0 300 300" version="1.1" xmlns="http://www.w3.org/2000/svg" xmlns:xlink="http://www.w3.org/1999/xlink" xmlns:sketch="http://www.bohemiancoding.com/sketch/ns">
    <!-- Generator: Sketch 3.3.2 (12043) - http://www.bohemiancoding.com/sketch -->
    <title>c3po</title>
    <desc>Created with Sketch.</desc>
    <defs></defs>
    <g id="Page-1" stroke="none" stroke-width="1" fill="none" fill-rule="evenodd" sketch:type="MSPage" opacity="0.5">
        <g id="c3po" sketch:type="MSArtboardGroup">
            <rect id="Rectangle-1" fill="#FFFFFF" sketch:type="MSShapeGroup" x="0" y="0" width="300" height="300"></rect>
            <path d="M88.8488372,243.686381 C88.8488372,243.686381 130.883721,268 147.697674,268 C172.918605,268 206.546512,243.686381 206.546512,243.686381 C206.837953,243.377333 207.084558,243.028952 207.370395,242.714286 L88.0193488,242.714286 C88.3107907,243.028952 88.5573953,243.377333 88.8488372,243.686381 L88.8488372,243.686381 Z M130.883721,47.0309524 L130.883721,34.1689524 C104.939791,39.5744762 56.6613256,58.4994286 42.4703488,124.714286 L34.2034884,124.714286 C31.8943721,124.714286 30,126.613524 30,128.928571 L30,145.785714 C30,148.100762 31.8943721,150 34.2034884,150 L38.9898605,150 C38.7993023,152.742095 38.676,155.557238 38.5863256,158.428571 L34.2034884,158.428571 C31.8943721,158.428571 30,160.32781 30,162.642857 L30,179.5 C30,181.815048 31.8943721,183.714286 34.2034884,183.714286 L39.5615349,183.714286 C40.6488372,193.384667 42.756186,205.785905 46.8139535,218.563619 L46.8139535,251.142857 L78.6371628,251.142857 C51.3929535,221.187714 51.0174419,167.688762 51.0174419,165.390571 C51.0174419,77.2333333 103.196744,53.4535238 130.883721,47.0309524 L130.883721,47.0309524 Z M139.290698,57.1845714 L156.104651,57.1845714 L156.104651,32 L139.290698,32 L139.290698,57.1845714 Z M164.511628,59.8367619 L164.511628,65.6131429 L130.883721,65.6131429 L130.883721,59.8367619 C106.352163,66.1581905 63.627907,88.2410476 63.627907,165.390571 C63.627907,165.390571 63.6783488,206.651238 81.5683953,234.285714 L130.883721,234.285714 L130.883721,225.857143 L164.511628,225.857143 L164.511628,234.285714 L213.826953,234.285714 C231.717,206.651238 231.767442,165.390571 231.767442,165.390571 C231.767442,88.2410476 189.043186,66.1581905 164.511628,59.8367619 L164.511628,59.8367619 Z M86.747093,174.892381 C82.8686744,170.442095 80.4418605,164.69381 80.4418605,158.327429 C80.4418605,151.955429 82.8686744,146.207143 86.747093,141.762476 L86.747093,174.892381 L86.747093,174.892381 Z M103.561047,150.320286 C99.9628605,151.275524 97.255814,154.416571 97.255814,158.327429 C97.255814,162.232667 99.9628605,165.373714 103.561047,166.328952 L103.561047,183.399619 C98.8755581,183.006286 94.5543721,181.399238 90.9505814,178.786381 L90.9505814,137.862857 C94.5543721,135.25 98.8755581,133.648571 103.561047,133.249619 L103.561047,150.320286 L103.561047,150.320286 Z M120.375,178.786381 C116.771209,181.399238 112.450023,183.006286 107.764535,183.399619 L107.764535,166.328952 C111.362721,165.373714 114.069767,162.232667 114.069767,158.327429 C114.069767,154.416571 111.362721,151.275524 107.764535,150.320286 L107.764535,133.249619 C112.450023,133.648571 116.771209,135.25 120.375,137.862857 L120.375,178.786381 L120.375,178.786381 Z M124.578488,174.892381 L124.578488,141.762476 C128.456907,146.207143 130.883721,151.955429 130.883721,158.327429 C130.883721,164.69381 128.456907,170.442095 124.578488,174.892381 L124.578488,174.892381 Z M147.697674,192.142857 L130.883721,200.571429 L147.697674,183.714286 L164.511628,200.571429 L147.697674,192.142857 L147.697674,192.142857 Z M170.81686,174.892381 C166.938442,170.442095 164.511628,164.69381 164.511628,158.327429 C164.511628,151.955429 166.938442,146.207143 170.81686,141.762476 L170.81686,174.892381 L170.81686,174.892381 Z M187.630814,150.320286 C184.032628,151.275524 181.325581,154.416571 181.325581,158.327429 C181.325581,162.232667 184.032628,165.373714 187.630814,166.328952 L187.630814,183.399619 C182.945326,183.006286 178.62414,181.399238 175.020349,178.786381 L175.020349,137.862857 C178.62414,135.25 182.945326,133.648571 187.630814,133.249619 L187.630814,150.320286 L187.630814,150.320286 Z M204.444767,178.786381 C200.840977,181.399238 196.519791,183.006286 191.834302,183.399619 L191.834302,166.328952 C195.432488,165.373714 198.139535,162.232667 198.139535,158.327429 C198.139535,154.416571 195.432488,151.275524 191.834302,150.320286 L191.834302,133.249619 C196.519791,133.648571 200.840977,135.25 204.444767,137.862857 L204.444767,178.786381 L204.444767,178.786381 Z M208.648256,174.892381 L208.648256,141.762476 C212.526674,146.207143 214.953488,151.955429 214.953488,158.327429 C214.953488,164.69381 212.526674,170.442095 208.648256,174.892381 L208.648256,174.892381 Z M265.395349,145.785714 L265.395349,128.928571 C265.395349,126.613524 263.506581,124.714286 261.19186,124.714286 L252.925,124.714286 C238.734023,58.4994286 190.455558,39.5744762 164.511628,34.1689524 L164.511628,47.0309524 C192.198605,53.4535238 244.377907,77.2333333 244.377907,165.390571 C244.377907,167.688762 244.008,221.187714 216.758186,251.142857 L248.581395,251.142857 L248.581395,218.563619 C252.639163,205.785905 254.746512,193.384667 255.833814,183.714286 L261.19186,183.714286 C263.506581,183.714286 265.395349,181.815048 265.395349,179.5 L265.395349,162.642857 C265.395349,160.32781 263.506581,158.428571 261.19186,158.428571 L256.809023,158.428571 C256.719349,155.557238 256.596047,152.742095 256.405488,150 L261.19186,150 C263.506581,150 265.395349,148.100762 265.395349,145.785714 L265.395349,145.785714 Z" id="Imported-Layers" fill="#264A62" sketch:type="MSShapeGroup"></path>
        </g>
    </g>
</svg>