<?xml version="1.0" encoding="UTF-8" standalone="no"?>
<svg width="300px" height="300px" viewBox="0 0 300 300" version="1.1" xmlns="http://www.w3.org/2000/svg" xmlns:xlink="http://www.w3.org/1999/xlink" xmlns:sketch="http://www.bohemiancoding.com/sketch/ns">
    <!-- Generator: Sketch 3.3.2 (12043) - http://www.bohemiancoding.com/sketch -->
    <title>chewie</title>
    <desc>Created with Sketch.</desc>
    <defs></defs>
    <g id="Page-1" stroke="none" stroke-width="1" fill="none" fill-rule="evenodd" sketch:type="MSPage" opacity="0.5">
        <g id="chewie" sketch:type="MSArtboardGroup">
            <rect id="Rectangle-1" fill="#FFFFFF" sketch:type="MSShapeGroup" x="0" y="0" width="300" height="300"></rect>
            <path d="M228.789375,86.4971429 C199.1396,101.091429 183.893925,118.988571 183.64775,119.297143 C183.218375,119.805714 182.6058,120.074286 181.9875,120.074286 C181.5066,120.074286 181.0257,119.914286 180.619225,119.588571 C179.70895,118.834286 179.57155,117.491429 180.32725,116.577143 C180.584875,116.257143 196.28855,97.7771429 226.785625,82.7257143 C222.033875,74.1028571 216.57795,66.1257143 210.343425,59.08 C181.764225,83.1257143 167.02235,118.205714 166.799075,118.737143 C166.718925,118.937143 166.547175,119.045714 166.421225,119.205714 C166.318175,119.331429 166.260925,119.451429 166.134975,119.554286 C165.7514,119.862857 165.310575,120.074286 164.8125,120.074286 L164.68655,120.074286 C164.6522,120.074286 164.635025,120.04 164.600675,120.034286 C164.4003,120.011429 164.199925,119.994286 164.005275,119.914286 C163.844975,119.851429 163.799175,119.674286 163.661775,119.577143 C163.421325,119.411429 163.24385,119.257143 163.089275,119.011429 C162.940425,118.777143 162.883175,118.56 162.83165,118.291429 C162.7973,118.114286 162.654175,117.988571 162.665625,117.805714 C162.8431,114.84 165.94605,66.2228571 178.4151,35.8914286 C169.22075,32.1657143 159.0417,30 147.6375,30 C136.2333,30 126.05425,32.1657143 116.8599,35.8914286 C129.32895,66.2285714 132.4319,114.84 132.609375,117.805714 C132.620825,117.988571 132.4777,118.114286 132.44335,118.291429 C132.391825,118.56 132.334575,118.777143 132.185725,119.011429 C132.03115,119.257143 131.853675,119.411429 131.613225,119.577143 C131.475825,119.674286 131.430025,119.851429 131.269725,119.914286 C131.075075,119.994286 130.8747,120.011429 130.674325,120.034286 C130.639975,120.04 130.6228,120.074286 130.58845,120.074286 L130.4625,120.074286 C129.964425,120.074286 129.5236,119.862857 129.140025,119.554286 C129.014075,119.451429 128.956825,119.331429 128.853775,119.205714 C128.727825,119.045714 128.556075,118.937143 128.475925,118.737143 C128.25265,118.205714 113.510775,83.1257143 84.931575,59.08 C78.69705,66.1257143 73.241125,74.1028571 68.489375,82.7257143 C98.98645,97.7771429 114.690125,116.257143 114.94775,116.577143 C115.70345,117.491429 115.56605,118.834286 114.655775,119.588571 C114.2493,119.914286 113.7684,120.074286 113.2875,120.074286 C112.663475,120.074286 112.056625,119.805714 111.62725,119.297143 C111.381075,118.988571 96.1354,101.091429 66.4799,86.4971429 C36.040075,145.308571 36,228.931429 36,228.931429 C36,237.411429 43.139075,244.285714 51.94985,244.285714 L87.525,244.285714 L108.85635,262.257143 L124.365375,254.514286 L147.6375,270 L170.909625,254.514286 L186.41865,262.257143 L207.75,244.285714 L243.32515,244.285714 C252.135925,244.285714 259.275,237.411429 259.275,228.931429 C259.275,228.931429 259.234925,145.308571 228.789375,86.4971429 L228.789375,86.4971429 Z M165.92315,137.285714 L180.87685,137.285714 C181.56385,138.52 181.9875,139.92 181.9875,141.428571 C181.9875,146.16 178.1403,150 173.4,150 C168.6597,150 164.8125,146.16 164.8125,141.428571 C164.8125,139.92 165.23615,138.52 165.92315,137.285714 L165.92315,137.285714 Z M147.6375,158.571429 C159.83175,158.571429 169.718825,164.325714 169.718825,171.428571 C169.718825,172.245714 169.558525,173.04 169.306625,173.811429 C168.264675,173.491429 167.18265,173.268571 166.03765,173.268571 C160.215325,173.268571 155.497925,177.777143 155.08,183.485714 C152.7442,183.971429 150.265275,184.285714 147.6375,184.285714 C145.009725,184.285714 142.5308,183.971429 140.195,183.485714 C139.777075,177.777143 135.059675,173.268571 129.23735,173.268571 C128.09235,173.268571 127.0046,173.491429 125.968375,173.811429 C125.716475,173.04 125.556175,172.245714 125.556175,171.428571 C125.556175,164.325714 135.44325,158.571429 147.6375,158.571429 L147.6375,158.571429 Z M114.39815,137.285714 L129.35185,137.285714 C130.03885,138.52 130.4625,139.92 130.4625,141.428571 C130.4625,146.16 126.6153,150 121.875,150 C117.1347,150 113.2875,146.16 113.2875,141.428571 C113.2875,139.92 113.71115,138.52 114.39815,137.285714 L114.39815,137.285714 Z M83.23125,205.714286 C83.23125,208.085714 81.313375,210 78.9375,210 C76.561625,210 74.64375,208.085714 74.64375,205.714286 C74.64375,187.971429 92.1508,173.085714 117.781625,166.502857 C117.28355,168.08 116.968675,169.714286 116.968675,171.428571 C116.968675,172.777143 117.2721,174.142857 117.644225,175.531429 C97.372,181.382857 83.23125,192.851429 83.23125,205.714286 L83.23125,205.714286 Z M181.86155,220.902857 C181.54095,222.171429 180.401675,223.005714 179.165075,223 L123.00855,223 C117.598425,222.977143 113.23025,218.285714 113.25315,212.834286 C113.27605,207.377143 117.6843,202.977143 123.094425,203 C123.9131,203.005714 124.74895,203.125714 125.50465,203.314286 L179.165075,217.308571 L179.86925,217.491429 C181.35775,217.88 182.245125,219.405714 181.86155,220.902857 L181.86155,220.902857 Z M216.3375,210 C213.961625,210 212.04375,208.085714 212.04375,205.714286 C212.04375,192.851429 197.903,181.382857 177.630775,175.531429 C178.0029,174.142857 178.306325,172.777143 178.306325,171.428571 C178.306325,169.714286 177.99145,168.08 177.493375,166.502857 C203.1242,173.085714 220.63125,187.971429 220.63125,205.714286 C220.63125,208.085714 218.713375,210 216.3375,210 L216.3375,210 Z" id="Imported-Layers" fill="#264A62" sketch:type="MSShapeGroup"></path>
        </g>
    </g>
</svg>