<?xml version="1.0" encoding="utf-8"?>
<!-- Generator: Adobe Illustrator 17.1.0, SVG Export Plug-In . SVG Version: 6.00 Build 0)  -->
<!DOCTYPE svg PUBLIC "-//W3C//DTD SVG 1.1//EN" "http://www.w3.org/Graphics/SVG/1.1/DTD/svg11.dtd">
<svg version="1.1" id="Layer_1" xmlns="http://www.w3.org/2000/svg" xmlns:xlink="http://www.w3.org/1999/xlink" x="0px" y="0px"
	 viewBox="0 0 50 50" enable-background="new 0 0 50 50" xml:space="preserve">
<rect fill="#FFFFFF" width="50" height="50"/>
<path fill="#A91E22" d="M40,21.4V16c0-6.6-5.4-12-12-12h-6c-6.6,0-12,5.4-12,12v5.4L4,37c0,3,9.4,9,21,9c11.6,0,21-6,21-9L40,21.4z
	 M16,41.1c-0.6,0-1.1-0.5-1.1-1.1s0.5-1.1,1.1-1.1c0.6,0,1.1,0.5,1.1,1.1S16.6,41.1,16,41.1z M14.5,25c0-0.8,0.4-2,0.9-2.7
	c0,0,1.4-1.8,4.3-1.8c1.5,0,2.5,0.7,2.5,0.7c0.7,0.5,1.3,1.5,1.3,2.3v2.2c0,0.4-0.7,0.8-1.5,0.8h-6C15.2,26.5,14.5,25.8,14.5,25z
	 M20.5,40H19v-3l1.5-1.5V40z M24.3,40H22v-6h2.2V40z M22.8,32.5v-2.2c0-1.2,1-2.2,2.2-2.2c1.2,0,2.2,1,2.2,2.2v2.2H22.8z M28,40
	h-2.2v-6H28V40z M31,40h-1.5v-4.5L31,37V40z M34,41.1c-0.6,0-1.1-0.5-1.1-1.1s0.5-1.1,1.1-1.1s1.1,0.5,1.1,1.1S34.6,41.1,34,41.1z
	 M34,26.5h-6c-0.8,0-1.5-0.3-1.5-0.8v-2.2c0-0.8,0.6-1.9,1.3-2.3c0,0,1-0.7,2.5-0.7c2.9,0,4.3,1.8,4.3,1.8c0.5,0.6,0.9,1.9,0.9,2.7
	S34.8,26.5,34,26.5z M43.3,37.7c-0.1,0-0.2,0.1-0.3,0.1c-0.3,0-0.6-0.2-0.7-0.5l-5.5-14c-1.4-3.6-3.2-5-6.4-5
	c-2.1,0-3.8,1.3-3.8,1.3c-0.9,0.7-2.4,0.7-3.3,0c0,0-1.8-1.3-3.8-1.3c-3.1,0-4.9,1.4-6.4,5l-5.5,14c-0.2,0.4-0.6,0.6-1,0.4
	c-0.4-0.1-0.6-0.6-0.4-1l5.5-14c1.7-4.2,4-6,7.8-6c2.6,0,4.7,1.5,4.7,1.6c0.4,0.3,1.1,0.3,1.5,0c0.1-0.1,2.2-1.6,4.7-1.6
	c3.8,0,6.1,1.8,7.8,6l5.5,14C43.8,37.1,43.7,37.5,43.3,37.7z"/>
</svg>
