<?xml version="1.0" encoding="UTF-8" standalone="no"?>
<svg width="300px" height="300px" viewBox="0 0 300 300" version="1.1" xmlns="http://www.w3.org/2000/svg" xmlns:xlink="http://www.w3.org/1999/xlink" xmlns:sketch="http://www.bohemiancoding.com/sketch/ns">
    <!-- Generator: Sketch 3.3.2 (12043) - http://www.bohemiancoding.com/sketch -->
    <title>darth</title>
    <desc>Created with Sketch.</desc>
    <defs></defs>
    <g id="Page-1" stroke="none" stroke-width="1" fill="none" fill-rule="evenodd" sketch:type="MSPage">
        <g id="darth" sketch:type="MSArtboardGroup">
            <rect id="Rectangle-1" fill="#FFFFFF" sketch:type="MSShapeGroup" x="0" y="0" width="300" height="300"></rect>
            <path d="M233.790698,129.842857 L233.790698,98.8571429 C233.790698,60.9857143 202.772093,30 164.860465,30 L130.395349,30 C92.4837209,30 61.4651163,60.9857143 61.4651163,98.8571429 L61.4651163,129.842857 L27,219.357143 C27,236.571429 81.0068372,271 147.627907,271 C214.248977,271 268.255814,236.571429 268.255814,219.357143 L233.790698,129.842857 L233.790698,129.842857 Z M95.9302326,243.026786 C92.3573488,243.026786 89.4680233,240.140524 89.4680233,236.571429 C89.4680233,233.002333 92.3573488,230.116071 95.9302326,230.116071 C99.5031163,230.116071 102.392442,233.002333 102.392442,236.571429 C102.392442,240.140524 99.5031163,243.026786 95.9302326,243.026786 L95.9302326,243.026786 Z M87.3139535,150.5 C87.3139535,145.766071 89.7035349,138.845929 92.6273256,135.116167 C92.6273256,135.116167 100.812791,124.678571 117.47093,124.678571 C125.920628,124.678571 131.814163,128.557524 131.814163,128.557524 C135.771907,131.156881 139.011628,137.158929 139.011628,141.892857 L139.011628,154.803571 C139.011628,157.167667 135.134302,159.107143 130.395349,159.107143 L95.9302326,159.107143 C91.1912791,159.107143 87.3139535,155.233929 87.3139535,150.5 L87.3139535,150.5 Z M121.77907,236.571429 L113.162791,236.571429 L113.162791,219.357143 L121.77907,210.75 L121.77907,236.571429 L121.77907,236.571429 Z M130.395349,202.142857 L143.319767,202.142857 L143.319767,236.571429 L130.395349,236.571429 L130.395349,202.142857 Z M134.703488,193.535714 L134.703488,180.625 C134.703488,173.492548 140.493628,167.714286 147.627907,167.714286 C154.76793,167.714286 160.552326,173.492548 160.552326,180.625 L160.552326,193.535714 L134.703488,193.535714 L134.703488,193.535714 Z M151.936047,202.142857 L164.860465,202.142857 L164.860465,236.571429 L151.936047,236.571429 L151.936047,202.142857 Z M182.093023,236.571429 L173.476744,236.571429 L173.476744,210.75 L182.093023,219.357143 L182.093023,236.571429 L182.093023,236.571429 Z M199.325581,243.026786 C195.752698,243.026786 192.863372,240.140524 192.863372,236.571429 C192.863372,233.002333 195.752698,230.116071 199.325581,230.116071 C202.898465,230.116071 205.787791,233.002333 205.787791,236.571429 C205.787791,240.140524 202.898465,243.026786 199.325581,243.026786 L199.325581,243.026786 Z M199.325581,159.107143 L164.860465,159.107143 C160.121512,159.107143 156.244186,157.167667 156.244186,154.803571 L156.244186,141.892857 C156.244186,137.158929 159.483907,131.156881 163.441651,128.557524 C163.441651,128.557524 169.335186,124.678571 177.784884,124.678571 C194.443023,124.678571 202.628488,135.116167 202.628488,135.116167 C205.552279,138.845929 207.94186,145.766071 207.94186,150.5 C207.94186,155.233929 204.064535,159.107143 199.325581,159.107143 L199.325581,159.107143 Z M252.585674,223.368071 C252.068698,223.568905 251.545977,223.660714 251.023256,223.660714 C249.3,223.660714 247.668651,222.616381 247.00807,220.917905 L215.679279,140.521452 C207.396163,119.835619 197.148535,111.767857 179.157744,111.767857 C167.215581,111.767857 157.203465,119.164262 157.10007,119.238857 C151.792442,123.226833 143.469116,123.209619 138.15,119.238857 C138.058093,119.164262 127.948326,111.767857 116.09807,111.767857 C98.1072791,111.767857 87.8596512,119.835619 79.5650465,140.555881 L48.2477442,220.917905 C47.3861163,223.13281 44.8701628,224.234524 42.6701395,223.368071 C40.4528837,222.507357 39.3557442,220.011286 40.2173721,217.796381 L71.551907,137.39419 C81.1619302,113.391738 94.4826977,103.160714 116.09807,103.160714 C130.87786,103.160714 142.820023,111.980167 143.319767,112.347405 C145.577233,114.045881 149.684326,114.045881 151.930302,112.347405 C152.435791,111.980167 164.377953,103.160714 179.157744,103.160714 C200.773116,103.160714 214.093884,113.391738 223.692419,137.359762 L255.038442,217.796381 C255.90007,220.011286 254.80293,222.507357 252.585674,223.368071 L252.585674,223.368071 Z" id="Imported-Layers" fill="#264A62" sketch:type="MSShapeGroup"></path>
        </g>
    </g>
</svg>