<?xml version="1.0" encoding="UTF-8" standalone="no"?>
<svg width="300px" height="300px" viewBox="0 0 300 300" version="1.1" xmlns="http://www.w3.org/2000/svg" xmlns:xlink="http://www.w3.org/1999/xlink" xmlns:sketch="http://www.bohemiancoding.com/sketch/ns">
    <!-- Generator: Sketch 3.3.2 (12043) - http://www.bohemiancoding.com/sketch -->
    <title>deathstar</title>
    <desc>Created with Sketch.</desc>
    <defs></defs>
    <g id="Page-1" stroke="none" stroke-width="1" fill="none" fill-rule="evenodd" sketch:type="MSPage" opacity="0.5">
        <g id="deathstar" sketch:type="MSArtboardGroup">
            <rect id="Rectangle-1" fill="#FFFFFF" sketch:type="MSShapeGroup" x="0" y="0" width="300" height="300"></rect>
            <path d="M266.576571,143.023256 C266.320286,135.867907 265.506857,128.863256 264.030429,122.093023 L216.645429,122.093023 L216.645429,113.72093 L233.359714,113.72093 L233.359714,105.348837 L199.931143,105.348837 L199.931143,96.9767442 L225.002571,96.9767442 L225.002571,88.6046512 L216.645429,88.6046512 L216.645429,80.2325581 L199.931143,80.2325581 L199.931143,71.8604651 L208.288286,71.8604651 L208.288286,63.4883721 L191.574,63.4883721 L191.574,55.1162791 L199.931143,55.1162791 L199.931143,41.4306977 C184.721143,34.1804651 167.761714,30 149.788286,30 C86.5804286,30 35.223,80.2437209 33,143.023256 L266.576571,143.023256 L266.576571,143.023256 Z M108.002571,55.1162791 C126.466286,55.1162791 141.431143,70.1134884 141.431143,88.6046512 C141.431143,107.101395 126.466286,122.093023 108.002571,122.093023 C89.5444286,122.093023 74.574,107.101395 74.574,88.6046512 C74.574,70.1134884 89.5444286,55.1162791 108.002571,55.1162791 L108.002571,55.1162791 Z M174.859714,261.655814 C166.781143,263.419535 158.407286,264.418605 149.788286,264.418605 C86.5804286,264.418605 35.223,214.180465 33,151.395349 L266.576571,151.395349 C266.320286,158.550698 265.506857,165.555349 264.030429,172.325581 L225.002571,172.325581 L225.002571,180.697674 L241.716857,180.697674 L241.716857,189.069767 L208.288286,189.069767 L208.288286,197.44186 L191.574,197.44186 L191.574,205.813953 L216.645429,205.813953 L216.645429,214.186047 L233.359714,214.186047 L233.359714,222.55814 L225.002571,222.55814 L225.002571,230.930233 L199.931143,230.930233 L199.931143,239.302326 L191.574,239.302326 L191.574,247.674419 L166.502571,247.674419 L166.502571,256.046512 L174.859714,256.046512 L174.859714,261.655814 L174.859714,261.655814 Z" id="Imported-Layers" fill="#254962" sketch:type="MSShapeGroup"></path>
        </g>
    </g>
</svg>