<?xml version="1.0" encoding="UTF-8" standalone="no"?>
<svg width="300px" height="300px" viewBox="0 0 300 300" version="1.1" xmlns="http://www.w3.org/2000/svg" xmlns:xlink="http://www.w3.org/1999/xlink" xmlns:sketch="http://www.bohemiancoding.com/sketch/ns">
    <!-- Generator: Sketch 3.3.2 (12043) - http://www.bohemiancoding.com/sketch -->
    <title>falcon</title>
    <desc>Created with Sketch.</desc>
    <defs></defs>
    <g id="Page-1" stroke="none" stroke-width="1" fill="none" fill-rule="evenodd" sketch:type="MSPage">
        <g id="falcon" sketch:type="MSArtboardGroup">
            <rect id="Rectangle-1" fill="#FFFFFF" sketch:type="MSShapeGroup" x="0" y="0" width="300" height="300"></rect>
            <path d="M112.210364,51.5637619 C112.210364,39.6572143 121.843636,30 133.733455,30 C136.683,30 139.392,30.7918571 141.940636,31.8878333 L120.245727,68.1870238 C115.394727,64.2392143 112.210364,58.3175 112.210364,51.5637619 L112.210364,51.5637619 Z M251.417455,233.851571 C239.476091,251.760167 222.557727,264.349548 203.726455,271 L196.848,266.398048 C179.786455,271.877929 161.281636,272.514857 143.618727,267.712071 L141.310636,249.717405 L138.172091,254.428381 C134.231727,260.338619 126.190636,261.939548 120.297273,257.997476 L111.883909,252.362667 C105.990545,248.420595 104.386909,240.36431 108.327273,234.45981 L112.090091,228.813524 L91.8155455,231.424357 C90.441,229.461929 89.0893636,227.488024 87.8637273,225.445262 L87.7606364,225.605929 L27,119.072452 L38.2483636,102.196714 L85.1604545,133.584095 C86.6953636,130.657667 88.3390909,127.765667 90.2119091,124.954 C92.0904545,122.142333 94.1236364,119.514286 96.237,116.978048 L49.3249091,85.5791905 L60.579,68.7034524 L138.349636,78.5844524 L127.633909,72.5824048 L149.483455,36.025 L190.227273,61.393119 L196.928182,101.559786 L198.113727,99.7809762 C202.048364,93.8764762 210.095182,92.2698095 215.988545,96.217619 L224.401909,101.84669 C230.295273,105.788762 231.893182,113.850786 227.958545,119.755286 L226.916182,121.316048 L242.013273,119.376571 C253.817182,134.530881 260.506636,152.835405 261.634909,171.61619 L267.408,175.483667 C268.484727,195.457976 263.358818,215.937238 251.417455,233.851571 L251.417455,233.851571 Z M197.031273,220.091619 C195.055364,218.771857 192.392182,219.3055 191.074909,221.279405 C189.757636,223.25331 190.284545,225.927262 192.260455,227.247024 C194.230636,228.566786 196.899545,228.033143 198.216818,226.059238 C199.534091,224.085333 199.001455,221.411381 197.031273,220.091619 L197.031273,220.091619 Z M187.226182,148.474452 C181.556182,144.681571 174.964091,142.673238 168.171545,142.673238 C156.648273,142.673238 145.961182,148.399857 139.563818,157.988214 C129.048545,173.773714 133.303909,195.194024 149.053909,205.729167 C154.729636,209.533524 161.321727,211.541857 168.12,211.541857 C179.631818,211.541857 190.324636,205.815238 196.716273,196.226881 C207.237273,180.447119 202.976182,159.021071 187.226182,148.474452 L187.226182,148.474452 Z M209.178818,237.83381 C207.208636,236.514048 204.539727,237.041952 203.222455,239.021595 C201.905182,240.9955 202.437818,243.669452 204.408,244.989214 C206.383909,246.308976 209.047091,245.775333 210.364364,243.801429 C211.681636,241.821786 211.154727,239.153571 209.178818,237.83381 L209.178818,237.83381 Z M212.529273,204.036429 C210.553364,202.716667 207.890182,203.25031 206.572909,205.224214 C205.255636,207.203857 205.782545,209.872071 207.758455,211.191833 C209.728636,212.511595 212.397545,211.98369 213.714818,210.004048 C215.032091,208.030143 214.499455,205.35619 212.529273,204.036429 L212.529273,204.036429 Z M222.580636,189.51331 C223.897909,187.539405 223.365273,184.865452 221.395091,183.54569 C219.424909,182.225929 216.756,182.759571 215.438727,184.733476 C214.121455,186.707381 214.648364,189.381333 216.624273,190.701095 C218.594455,192.020857 221.263364,191.487214 222.580636,189.51331 L222.580636,189.51331 Z M229.109727,215.133905 C227.133818,213.814143 224.470636,214.347786 223.153364,216.32169 C221.836091,218.295595 222.363,220.969548 224.338909,222.28931 C226.309091,223.609071 228.978,223.081167 230.295273,221.101524 C231.612545,219.127619 231.079909,216.453667 229.109727,215.133905 L229.109727,215.133905 Z M242.402727,187.998452 C240.432545,186.67869 237.763636,187.206595 236.446364,189.186238 C235.129091,191.160143 235.661727,193.834095 237.631909,195.153857 C239.607818,196.473619 242.271,195.939976 243.588273,193.966071 C244.905545,191.986429 244.378636,189.318214 242.402727,187.998452 L242.402727,187.998452 Z M182.449636,155.635595 C178.2,152.783762 173.263091,151.280381 168.171545,151.280381 C159.529091,151.280381 151.505182,155.578214 146.711455,162.76231 C138.825,174.605738 142.015091,190.666667 153.830455,198.568024 C158.085818,201.419857 163.028455,202.934714 168.12,202.934714 C176.762455,202.934714 184.774909,198.636881 189.568636,191.452786 C197.460818,179.609357 194.270727,163.54269 182.449636,155.635595 L182.449636,155.635595 Z" id="Imported-Layers" fill="#254962" sketch:type="MSShapeGroup"></path>
        </g>
    </g>
</svg>