<?xml version="1.0" encoding="UTF-8" standalone="no"?>
<svg width="300px" height="300px" viewBox="0 0 300 300" version="1.1" xmlns="http://www.w3.org/2000/svg" xmlns:xlink="http://www.w3.org/1999/xlink" xmlns:sketch="http://www.bohemiancoding.com/sketch/ns">
    <!-- Generator: Sketch 3.3.2 (12043) - http://www.bohemiancoding.com/sketch -->
    <title>leia</title>
    <desc>Created with Sketch.</desc>
    <defs></defs>
    <g id="Page-1" stroke="none" stroke-width="1" fill="none" fill-rule="evenodd" sketch:type="MSPage">
        <g id="leia" sketch:type="MSArtboardGroup">
            <rect id="Rectangle-1" fill="#FFFFFF" sketch:type="MSShapeGroup" x="0" y="0" width="300" height="300"></rect>
            <path d="M130.472279,164.627907 C130.472279,169.312721 126.680349,173.104651 121.995535,173.104651 C117.310721,173.104651 113.518791,169.312721 113.518791,164.627907 C113.518791,159.943093 117.310721,156.151163 121.995535,156.151163 C126.680349,156.151163 130.472279,159.943093 130.472279,164.627907 L130.472279,164.627907 Z M172.856,156.151163 C168.171186,156.151163 164.379256,159.943093 164.379256,164.627907 C164.379256,169.312721 168.171186,173.104651 172.856,173.104651 C177.540814,173.104651 181.332744,169.312721 181.332744,164.627907 C181.332744,159.943093 177.540814,156.151163 172.856,156.151163 L172.856,156.151163 Z M266.348837,122.244186 L266.348837,164.627907 C266.348837,178.614535 254.905233,190.05814 240.918605,190.05814 C237.335767,190.05814 233.928116,189.289581 230.831279,187.933302 C229.435442,201.281349 227.073256,210.006744 223.524326,215.787884 C217.195023,225.570047 173.500233,266.348837 147.425767,266.348837 C121.356953,266.348837 77.6791163,225.603953 71.1350698,215.482721 C67.7161163,209.916326 65.4104419,201.33786 64.0372093,188.136744 C61.0646977,189.357395 57.8265814,190.05814 54.4302326,190.05814 C40.4436047,190.05814 29,178.614535 29,164.627907 L29,122.244186 C29,108.257558 40.4436047,96.8139535 54.4302326,96.8139535 C57.5553256,96.8139535 60.5165349,97.4638372 63.2856047,98.5036512 C67.1114419,59.5558372 103.403209,29 147.674419,29 C191.945628,29 228.237395,59.5558372 232.063233,98.5036512 C234.832302,97.4638372 237.793512,96.8139535 240.918605,96.8139535 C254.905233,96.8139535 266.348837,108.257558 266.348837,122.244186 L266.348837,122.244186 Z M215.347093,133.495651 C215.386651,132.56886 215.488372,131.659023 215.488372,130.72093 C215.488372,130.240581 215.426209,129.771535 215.414907,129.296837 C211.018302,130.201023 206.446512,130.72093 201.727791,130.72093 C177.535163,130.72093 156.76714,118.141442 147.674419,100.159442 C138.581698,118.141442 117.813674,130.72093 93.6210465,130.72093 C88.9023256,130.72093 84.3305349,130.201023 79.9339302,129.296837 C79.9226279,129.771535 79.8604651,130.240581 79.8604651,130.72093 L79.8604651,164.627907 C79.8604651,165.306047 79.7135349,165.944628 79.6570233,166.617116 C80.1995349,183.338907 81.7140465,200.303698 85.5907442,206.621698 C91.417093,215.629651 130.636163,249.395349 147.425767,249.395349 C164.215372,249.395349 203.434442,215.629651 209.289047,206.58214 C216.11,195.449349 215.595744,151.019907 215.347093,133.495651 L215.347093,133.495651 Z" id="Imported-Layers" fill="#264A62" sketch:type="MSShapeGroup"></path>
        </g>
    </g>
</svg>