<?xml version="1.0" encoding="utf-8"?>
<!-- Generator: Adobe Illustrator 17.1.0, SVG Export Plug-In . SVG Version: 6.00 Build 0)  -->
<!DOCTYPE svg PUBLIC "-//W3C//DTD SVG 1.1//EN" "http://www.w3.org/Graphics/SVG/1.1/DTD/svg11.dtd">
<svg version="1.1" id="Layer_1" xmlns:sketch="http://www.bohemiancoding.com/sketch/ns"
	 xmlns="http://www.w3.org/2000/svg" xmlns:xlink="http://www.w3.org/1999/xlink" x="0px" y="0px" viewBox="0 0 300 300"
	 enable-background="new 0 0 300 300" xml:space="preserve">
<title>leia</title>
<desc>Created with Sketch.</desc>
<g id="Page-1" sketch:type="MSPage" opacity="0.5">
	<g id="leia" sketch:type="MSArtboardGroup">
		<rect id="Rectangle-1" sketch:type="MSShapeGroup" fill="#FFFFFF" width="300" height="300">
		</rect>
		<path id="Imported-Layers" sketch:type="MSShapeGroup" fill="#264A62" d="M130.5,164.6c0,4.7-3.8,8.5-8.5,8.5s-8.5-3.8-8.5-8.5
			c0-4.7,3.8-8.5,8.5-8.5S130.5,159.9,130.5,164.6L130.5,164.6z M172.9,156.2c-4.7,0-8.5,3.8-8.5,8.5c0,4.7,3.8,8.5,8.5,8.5
			s8.5-3.8,8.5-8.5C181.3,159.9,177.5,156.2,172.9,156.2L172.9,156.2z M266.3,122.2v42.4c0,14-11.4,25.4-25.4,25.4
			c-3.6,0-7-0.8-10.1-2.1c-1.4,13.3-3.8,22.1-7.3,27.9c-6.3,9.8-50,50.6-76.1,50.6c-26.1,0-69.7-40.7-76.3-50.9
			c-3.4-5.6-5.7-14.1-7.1-27.3c-3,1.2-6.2,1.9-9.6,1.9c-14,0-25.4-11.4-25.4-25.4v-42.4c0-14,11.4-25.4,25.4-25.4
			c3.1,0,6.1,0.6,8.9,1.7C67.1,59.6,103.4,29,147.7,29s80.6,30.6,84.4,69.5c2.8-1,5.7-1.7,8.9-1.7
			C254.9,96.8,266.3,108.3,266.3,122.2L266.3,122.2z M215.3,133.5c0-0.9,0.1-1.8,0.1-2.8c0-0.5-0.1-0.9-0.1-1.4
			c-4.4,0.9-9,1.4-13.7,1.4c-24.2,0-45-12.6-54.1-30.6c-9.1,18-29.9,30.6-54.1,30.6c-4.7,0-9.3-0.5-13.7-1.4c0,0.5-0.1,0.9-0.1,1.4
			v33.9c0,0.7-0.1,1.3-0.2,2c0.5,16.7,2.1,33.7,5.9,40c5.8,9,45,42.8,61.8,42.8s56-33.8,61.9-42.8
			C216.1,195.4,215.6,151,215.3,133.5L215.3,133.5z"/>
	</g>
</g>
</svg>
