<?xml version="1.0" encoding="UTF-8" standalone="no"?>
<svg width="300px" height="300px" viewBox="0 0 300 300" version="1.1" xmlns="http://www.w3.org/2000/svg" xmlns:xlink="http://www.w3.org/1999/xlink" xmlns:sketch="http://www.bohemiancoding.com/sketch/ns">
    <!-- Generator: Sketch 3.3.2 (12043) - http://www.bohemiancoding.com/sketch -->
    <title>lightsaber</title>
    <desc>Created with Sketch.</desc>
    <defs></defs>
    <g id="Page-1" stroke="none" stroke-width="1" fill="none" fill-rule="evenodd" sketch:type="MSPage" opacity="0.5">
        <g id="lightsaber" sketch:type="MSArtboardGroup">
            <rect id="Rectangle-1" fill="#FFFFFF" sketch:type="MSShapeGroup" x="0" y="0" width="300" height="300"></rect>
            <path d="M142.691,159.660637 L123.584,167.544208 L127.724,28.5370656 C127.8185,25.3845656 130.37,22.9052799 133.4255,23.0027799 C136.3595,23.0956371 138.6905,25.5517085 138.785,28.5370656 L142.691,159.660637 L142.691,159.660637 Z M153.5,198.911351 L153.5,191.947066 L150.125,191.947066 L150.125,164.089923 L116.375,178.018494 L116.375,191.947066 L113,191.947066 L113,198.911351 L116.375,198.911351 L116.375,212.839923 L150.125,212.839923 L150.125,198.911351 L153.5,198.911351 L153.5,198.911351 Z M116.375,268.554208 L123.125,268.554208 L123.125,219.804208 L116.375,219.804208 L116.375,268.554208 Z M129.875,268.554208 L136.625,268.554208 L136.625,219.804208 L129.875,219.804208 L129.875,268.554208 Z M143.375,268.554208 L150.125,268.554208 L150.125,219.804208 L143.375,219.804208 L143.375,268.554208 Z M119.75,282.48278 L146.75,282.48278 L146.75,275.518494 L119.75,275.518494 L119.75,282.48278 Z" id="Imported-Layers" fill="#264A62" sketch:type="MSShapeGroup" transform="translate(135.500000, 153.000000) rotate(25.000000) translate(-135.500000, -153.000000) "></path>
            <path d="M176.607797,163.461806 L156.617977,163.461806 L160.907159,25.5423479 C161.004852,22.425472 163.637907,19.9797818 166.787339,20.0763222 C169.820469,20.1682654 172.225575,22.5909698 172.323267,25.5423479 L176.607797,163.461806 L176.607797,163.461806 Z M149.197972,218.526613 L149.197972,273.59142 L156.162077,273.59142 L156.162077,280.473372 L177.059045,280.473372 L177.059045,273.59142 L184.02315,273.59142 L184.02315,218.526613 L149.197972,218.526613 L149.197972,218.526613 Z M152.682351,211.640065 L180.543424,211.640065 L180.543424,204.758113 L152.682351,204.758113 L152.682351,211.640065 Z M180.538772,190.99421 L152.682351,190.99421 L152.677699,197.876161 L180.538772,197.876161 L180.538772,190.99421 L180.538772,190.99421 Z M184.02315,177.230307 L177.059045,177.22571 L177.059045,170.343758 L156.162077,170.343758 L156.162077,177.22571 L149.197972,177.230307 L149.197972,184.112258 L184.02315,184.112258 L184.02315,177.230307 L184.02315,177.230307 Z" id="Imported-Layers" fill="#264A62" sketch:type="MSShapeGroup" transform="translate(170.132156, 153.391259) rotate(-25.000000) translate(-170.132156, -153.391259) "></path>
        </g>
    </g>
</svg>