<?xml version="1.0" encoding="UTF-8" standalone="no"?>
<svg width="300px" height="300px" viewBox="0 0 300 300" version="1.1" xmlns="http://www.w3.org/2000/svg" xmlns:xlink="http://www.w3.org/1999/xlink" xmlns:sketch="http://www.bohemiancoding.com/sketch/ns">
    <!-- Generator: Sketch 3.3.2 (12043) - http://www.bohemiancoding.com/sketch -->
    <title>r2d2</title>
    <desc>Created with Sketch.</desc>
    <defs></defs>
    <g id="Page-1" stroke="none" stroke-width="1" fill="none" fill-rule="evenodd" sketch:type="MSPage">
        <g id="r2d2" sketch:type="MSArtboardGroup">
            <rect id="Rectangle-1" fill="#FFFFFF" sketch:type="MSShapeGroup" x="0" y="0" width="300" height="300"></rect>
            <path d="M265.395349,265.395349 L198.139535,265.395349 L214.953488,223.360465 L214.953488,105.662791 L231.767442,105.662791 C241.054349,105.662791 248.581395,113.189837 248.581395,122.476744 L248.581395,223.360465 L265.395349,265.395349 L265.395349,265.395349 Z M80.4418605,139.290698 L80.4418605,105.662791 L63.627907,105.662791 C54.341,105.662791 46.8139535,113.189837 46.8139535,122.476744 L46.8139535,223.360465 L30,265.395349 L97.255814,265.395349 L80.4418605,223.360465 L80.4418605,139.290698 L80.4418605,139.290698 Z M89.1290698,97.255814 L88.8488372,97.255814 L88.8488372,88.8432326 C88.8488372,56.3474651 115.201907,30 147.697674,30 C180.193442,30 206.546512,56.3474651 206.546512,88.8432326 L206.546512,97.255814 L89.1290698,97.255814 L89.1290698,97.255814 Z M172.918605,80.4418605 C172.918605,85.0825116 176.679326,88.8488372 181.325581,88.8488372 C185.971837,88.8488372 189.732558,85.0825116 189.732558,80.4418605 C189.732558,75.8012093 185.971837,72.0348837 181.325581,72.0348837 C176.679326,72.0348837 172.918605,75.8012093 172.918605,80.4418605 L172.918605,80.4418605 Z M130.883721,59.4244186 C130.883721,68.7001163 138.405163,76.2383721 147.697674,76.2383721 C156.973372,76.2383721 164.511628,68.7001163 164.511628,59.4244186 C164.511628,50.1487209 156.973372,42.6104651 147.697674,42.6104651 C138.405163,42.6104651 130.883721,50.1487209 130.883721,59.4244186 L130.883721,59.4244186 Z M206.546512,223.360465 L189.732558,240.174419 L105.662791,240.174419 L88.8488372,223.360465 L88.8488372,105.662791 L206.546512,105.662791 L206.546512,223.360465 L206.546512,223.360465 Z M181.325581,164.511628 C181.325581,159.865372 177.56486,156.104651 172.918605,156.104651 L122.476744,156.104651 C117.830488,156.104651 114.069767,159.865372 114.069767,164.511628 C114.069767,169.157884 117.830488,172.918605 122.476744,172.918605 L172.918605,172.918605 C177.56486,172.918605 181.325581,169.157884 181.325581,164.511628 L181.325581,164.511628 Z M181.325581,130.883721 C181.325581,126.24307 177.56486,122.476744 172.918605,122.476744 L122.476744,122.476744 C117.830488,122.476744 114.069767,126.24307 114.069767,130.883721 C114.069767,135.524372 117.830488,139.290698 122.476744,139.290698 L172.918605,139.290698 C177.56486,139.290698 181.325581,135.524372 181.325581,130.883721 L181.325581,130.883721 Z" id="Imported-Layers" fill="#264A62" sketch:type="MSShapeGroup"></path>
        </g>
    </g>
</svg>