<?xml version="1.0" encoding="UTF-8" standalone="no"?>
<svg width="300px" height="300px" viewBox="0 0 300 300" version="1.1" xmlns="http://www.w3.org/2000/svg" xmlns:xlink="http://www.w3.org/1999/xlink" xmlns:sketch="http://www.bohemiancoding.com/sketch/ns">
    <!-- Generator: Sketch 3.3.2 (12043) - http://www.bohemiancoding.com/sketch -->
    <title>stormtrooper</title>
    <desc>Created with Sketch.</desc>
    <defs></defs>
    <g id="Page-1" stroke="none" stroke-width="1" fill="none" fill-rule="evenodd" sketch:type="MSPage">
        <g id="stormtrooper" sketch:type="MSArtboardGroup">
            <rect id="Rectangle-1" fill="#FFFFFF" sketch:type="MSShapeGroup" x="0" y="0" width="300" height="300"></rect>
            <path d="M135.523256,235.285714 L135.523256,260.571429 C135.523256,262.903333 133.637907,264.785714 131.302326,264.785714 C128.966744,264.785714 127.081395,262.903333 127.081395,260.571429 L127.081395,235.285714 C127.081395,232.95381 128.966744,231.071429 131.302326,231.071429 C133.637907,231.071429 135.523256,232.95381 135.523256,235.285714 L135.523256,235.285714 Z M165.069767,231.071429 C162.734186,231.071429 160.848837,232.95381 160.848837,235.285714 L160.848837,260.571429 C160.848837,262.903333 162.734186,264.785714 165.069767,264.785714 C167.405349,264.785714 169.290698,262.903333 169.290698,260.571429 L169.290698,235.285714 C169.290698,232.95381 167.405349,231.071429 165.069767,231.071429 L165.069767,231.071429 Z M241.046512,92 L241.046512,83.5714286 C241.046512,55.7571429 217.921442,33 189.669349,33 L106.702744,33 C78.4506512,33 55.3255814,55.7571429 55.3255814,83.5714286 L55.3255814,92 L241.046512,92 L241.046512,92 Z M266.372093,184.714286 C266.372093,200.38019 241.220977,222.32819 241.220977,226.857143 C241.220977,252.142857 223.718186,269 198.184372,269 C188.847674,269 180.282,266.044381 173.393442,261.15581 C173.410326,260.947905 173.511628,260.779333 173.511628,260.571429 L173.511628,235.285714 C173.511628,230.633143 169.718419,226.857143 165.069767,226.857143 C161.29907,226.857143 158.220605,229.374476 157.140047,232.785238 L156.627907,232.785238 L156.627907,231.071429 C156.627907,226.418857 152.834698,222.642857 148.186047,222.642857 C143.537395,222.642857 139.744186,226.418857 139.744186,231.071429 L139.744186,232.785238 L139.232047,232.785238 C138.151488,229.374476 135.067395,226.857143 131.302326,226.857143 C126.653674,226.857143 122.860465,230.633143 122.860465,235.285714 L122.860465,260.571429 C122.860465,260.779333 122.95614,260.947905 122.978651,261.15581 C116.090093,266.044381 107.524419,269 98.1877209,269 C72.653907,269 55.1511163,252.142857 55.1511163,226.857143 C55.1511163,222.32819 30,200.38019 30,184.714286 C30,172.987333 36.173814,164.15981 46.8837209,159.428571 L46.8837209,117.285714 C46.8837209,117.285714 46.8837209,108.857143 55.3255814,108.857143 L55.3255814,100.428571 L241.046512,100.428571 L241.046512,108.857143 C249.488372,108.857143 249.488372,117.285714 249.488372,117.285714 L249.488372,159.428571 C260.198279,164.15981 266.372093,172.987333 266.372093,184.714286 L266.372093,184.714286 Z M105.976744,239.5 C105.976744,232.521143 100.303814,226.857143 93.3139535,226.857143 C86.324093,226.857143 80.6511628,232.521143 80.6511628,239.5 C80.6511628,246.478857 86.324093,252.142857 93.3139535,252.142857 C100.303814,252.142857 105.976744,246.478857 105.976744,239.5 L105.976744,239.5 Z M105.976744,184.714286 L91.5017674,189.282571 C90.1004186,189.563524 89.0930233,190.524381 89.0930233,191.457143 C89.0930233,192.384286 90.1004186,193.142857 91.5017674,193.142857 L105.976744,193.142857 L105.976744,184.714286 L105.976744,184.714286 Z M131.302326,167.666095 C125.764465,169.981143 120.412326,173.509905 114.418605,178.656952 L114.418605,190.333333 C115.274047,190.041143 116.163256,189.76019 116.923023,189.389333 C121.605442,187.091143 126.372279,184.556952 131.302326,182.517238 L131.302326,167.666095 L131.302326,167.666095 Z M139.744186,117.285714 L72.2093023,117.285714 C72.2093023,117.285714 72.2093023,151 89.0930233,151 C105.976744,151 139.744186,117.285714 139.744186,117.285714 L139.744186,117.285714 Z M156.627907,165.109429 C153.954651,164.581238 151.168837,164.249714 148.186047,164.126095 C145.203256,164.249714 142.417442,164.581238 139.744186,165.109429 L139.744186,179.707714 C142.496233,179.050286 145.29893,178.656952 148.186047,178.656952 C151.073163,178.656952 153.87586,179.050286 156.627907,179.707714 L156.627907,165.109429 L156.627907,165.109429 Z M181.953488,178.656952 C175.959767,173.509905 170.607628,169.981143 165.069767,167.666095 L165.069767,182.517238 C169.999814,184.556952 174.766651,187.091143 179.44907,189.389333 C180.208837,189.76019 181.098047,190.041143 181.953488,190.333333 L181.953488,178.656952 L181.953488,178.656952 Z M215.72093,239.5 C215.72093,232.521143 210.048,226.857143 203.05814,226.857143 C196.068279,226.857143 190.395349,232.521143 190.395349,239.5 C190.395349,246.478857 196.068279,252.142857 203.05814,252.142857 C210.048,252.142857 215.72093,246.478857 215.72093,239.5 L215.72093,239.5 Z M204.870326,193.142857 C206.271674,193.142857 207.27907,192.384286 207.27907,191.457143 C207.27907,190.524381 206.271674,189.563524 204.870326,189.282571 L190.395349,184.714286 L190.395349,193.142857 L204.870326,193.142857 L204.870326,193.142857 Z M224.162791,117.285714 L156.627907,117.285714 C156.627907,117.285714 190.395349,151 207.27907,151 C224.162791,151 224.162791,117.285714 224.162791,117.285714 L224.162791,117.285714 Z M148.186047,226.857143 C145.850465,226.857143 143.965116,228.739524 143.965116,231.071429 L143.965116,264.785714 C143.965116,267.117619 145.850465,269 148.186047,269 C150.521628,269 152.406977,267.117619 152.406977,264.785714 L152.406977,231.071429 C152.406977,228.739524 150.521628,226.857143 148.186047,226.857143 L148.186047,226.857143 Z" id="Imported-Layers" fill="#264A62" sketch:type="MSShapeGroup"></path>
        </g>
    </g>
</svg>