<?xml version="1.0" encoding="utf-8"?>
<!-- Generator: Adobe Illustrator 17.1.0, SVG Export Plug-In . SVG Version: 6.00 Build 0)  -->
<!DOCTYPE svg PUBLIC "-//W3C//DTD SVG 1.1//EN" "http://www.w3.org/Graphics/SVG/1.1/DTD/svg11.dtd">
<svg version="1.1" id="Layer_1" xmlns:sketch="http://www.bohemiancoding.com/sketch/ns"
	 xmlns="http://www.w3.org/2000/svg" xmlns:xlink="http://www.w3.org/1999/xlink" x="0px" y="0px" viewBox="0 0 300 300"
	 enable-background="new 0 0 300 300" xml:space="preserve">
<title>yoda</title>
<desc>Created with Sketch.</desc>
<g id="Page-1" sketch:type="MSPage">
	<g id="yoda" sketch:type="MSArtboardGroup">
		<rect id="Rectangle-1" sketch:type="MSShapeGroup" fill="#FFFFFF" width="300" height="300">
		</rect>
		<g>
			<path fill="#264A62" d="M93,172.3c-1.2,0-2.4-0.2-3.6-0.4L56,261h74l-33.4-89C95.4,172.2,94.2,172.3,93,172.3z"/>
			<path fill="#264A62" d="M70.1,153.7H18.3l29,103.9l33.3-88.9C75.3,165.4,71.4,160,70.1,153.7z"/>
			<path fill="#264A62" d="M115.9,153.7c-1.3,6.3-5.2,11.7-10.5,15l33.3,88.9l27.7-103.9H115.9z"/>
			<path fill="#264A62" d="M80.6,129.3L47.3,40.4l-29,103.9h51.8C71.4,138,75.3,132.6,80.6,129.3z"/>
			<path fill="#264A62" d="M93,125.7c1.2,0,2.4,0.2,3.6,0.4L130,37H56l33.4,89C90.6,125.8,91.8,125.7,93,125.7z"/>
			<path fill="#264A62" d="M115.9,144.3h50.6L138.7,40.4l-33.3,88.9C110.7,132.6,114.6,138,115.9,144.3z"/>
			<circle fill="#264A62" cx="93" cy="149" r="9.3"/>
			<path fill="#264A62" d="M173.2,133.5l4.1,15.5l-4.1,15.5c2.5,1.4,5.4,2.3,8.5,2.3c9.8,0,17.7-8,17.7-17.7s-8-17.7-17.7-17.7
				C178.6,131.3,175.7,132.1,173.2,133.5z"/>
			<path fill="#264A62" d="M184,126.6c0,0.1-0.1,0.1-0.1,0.2c4.5,0.5,8.6,2.2,11.9,4.9c0.1-0.1,0-0.2,0.1-0.2l8.7-8.7
				c-5.6-4.9-12.7-8-20.6-8.5V126.6z"/>
			<path fill="#264A62" d="M168.7,116.8L172,129c2.3-1.1,4.8-1.9,7.4-2.1c0-0.1-0.1-0.1-0.1-0.2v-12.4
				C175.6,114.5,172.1,115.5,168.7,116.8z"/>
			<path fill="#264A62" d="M179.3,183.8v-12.4c0-0.1,0.1-0.1,0.1-0.2c-2.7-0.3-5.1-1-7.4-2.1l-3.2,12.2
				C172.1,182.5,175.6,183.5,179.3,183.8z"/>
			<path fill="#264A62" d="M216.4,151.3h-12.4c-0.1,0-0.1-0.1-0.2-0.1c-0.5,4.5-2.2,8.6-4.9,11.9c0.1,0.1,0.2,0,0.2,0.1l8.7,8.7
				C212.8,166.3,215.9,159.2,216.4,151.3z"/>
			<path fill="#264A62" d="M207.9,126.1l-8.7,8.7c-0.1,0.1-0.2,0-0.2,0.1c2.7,3.3,4.4,7.4,4.9,11.9c0.1,0,0.1-0.1,0.2-0.1h12.4
				C215.9,138.8,212.8,131.7,207.9,126.1z"/>
			<path fill="#264A62" d="M204.6,175.2l-8.7-8.7c-0.1-0.1,0-0.2-0.1-0.2c-3.3,2.7-7.4,4.4-11.9,4.9c0,0.1,0.1,0.1,0.1,0.2v12.4
				C191.9,183.2,199,180.1,204.6,175.2z"/>
			<path fill="#264A62" d="M249.8,37h-89.6l-6.4,23.9l8.6,32.1H177c31.4,0,56,25.8,56,56v0c0,30.9-25.1,56-56,56h-14.6l-8.6,32.1
				l6.4,23.9h89.6l29.9-112L249.8,37z"/>
		</g>
	</g>
</g>
</svg>
