<?xml version="1.0" encoding="UTF-8" standalone="no"?>
<svg width="300px" height="300px" viewBox="0 0 300 300" version="1.1" xmlns="http://www.w3.org/2000/svg" xmlns:xlink="http://www.w3.org/1999/xlink" xmlns:sketch="http://www.bohemiancoding.com/sketch/ns">
    <!-- Generator: Sketch 3.3.2 (12043) - http://www.bohemiancoding.com/sketch -->
    <title>xwing</title>
    <desc>Created with Sketch.</desc>
    <defs></defs>
    <g id="Page-1" stroke="none" stroke-width="1" fill="none" fill-rule="evenodd" sketch:type="MSPage">
        <g id="xwing" sketch:type="MSArtboardGroup">
            <rect id="Rectangle-1" fill="#FFFFFF" sketch:type="MSShapeGroup" x="0" y="0" width="300" height="300"></rect>
            <path d="M160.132082,113.860424 C160.132082,107.654606 155.096035,102.621212 148.890906,102.621212 C142.682565,102.621212 137.649729,107.654606 137.649729,113.860424 L137.649729,116.674242 L160.135294,116.674242 L160.132082,113.860424 L160.132082,113.860424 Z M148.890906,111.454545 C147.1148,111.454545 145.679141,110.015515 145.679141,108.242424 C145.679141,106.469333 147.1148,105.030303 148.890906,105.030303 C150.660588,105.030303 152.102671,106.469333 152.102671,108.242424 C152.102671,110.015515 150.660588,111.454545 148.890906,111.454545 L148.890906,111.454545 Z M155.314435,113.863636 C154.424776,113.863636 153.708553,113.144121 153.708553,112.257576 C153.708553,111.37103 154.424776,110.651515 155.314435,110.651515 C156.200882,110.651515 156.920318,111.37103 156.920318,112.257576 C156.920318,113.144121 156.200882,113.863636 155.314435,113.863636 L155.314435,113.863636 Z M123.305988,151.220606 L126.424612,136.348485 L122.059824,136.348485 C123.784541,134.437273 125.123847,132.13097 125.836859,129.471333 C128.248894,120.474182 122.910941,111.226485 113.914788,108.817394 C104.918635,106.405091 95.6719647,111.743636 93.2631412,120.740788 C93.2310235,120.862848 93.2342353,120.981697 93.2053294,121.100545 L77.8145529,124.990424 L35.0499059,113.625939 C35.9363529,112.019879 36.4823529,110.20503 36.4823529,108.242424 C36.4823529,102.033394 31.4495176,97 25.2411765,97 C19.0328353,97 14,102.033394 14,108.242424 C14,113.683758 17.8669647,118.219273 23.0025765,119.26 L115.944624,144.780303 L23.0025765,170.300606 C17.8669647,171.341333 14,175.876848 14,181.318182 C14,187.527212 19.0328353,192.560606 25.2411765,192.560606 C31.4495176,192.560606 36.4823529,187.527212 36.4823529,181.318182 C36.4823529,179.355576 35.9363529,177.537515 35.0499059,175.934667 L77.8145529,164.570182 L93.2053294,168.460061 C93.2342353,168.578909 93.2310235,168.697758 93.2631412,168.819818 C95.6719647,177.813758 104.918635,183.152303 113.914788,180.743212 C121.359659,178.748485 126.209424,172.057636 126.325047,164.717939 L123.305988,151.220606 L123.305988,151.220606 Z M25.2411765,113.863636 C22.1386118,113.863636 19.6205882,111.345333 19.6205882,108.242424 C19.6205882,105.136303 22.1386118,102.621212 25.2411765,102.621212 C28.3437412,102.621212 30.8617647,105.136303 30.8617647,108.242424 C30.8617647,111.345333 28.3437412,113.863636 25.2411765,113.863636 L25.2411765,113.863636 Z M25.2411765,186.939394 C22.1386118,186.939394 19.6205882,184.424303 19.6205882,181.318182 C19.6205882,178.215273 22.1386118,175.69697 25.2411765,175.69697 C28.3437412,175.69697 30.8617647,178.215273 30.8617647,181.318182 C30.8617647,184.424303 28.3437412,186.939394 25.2411765,186.939394 L25.2411765,186.939394 Z M106.640141,135.966242 C101.109482,134.482242 97.7050118,129.121212 98.4662,123.589939 L119.907941,129.336424 C117.801024,134.504727 112.1708,137.44703 106.640141,135.966242 L106.640141,135.966242 Z M98.4662,165.970667 C97.7050118,160.439394 101.109482,155.078364 106.640141,153.594364 C112.1708,152.113576 117.801024,155.055879 119.907941,160.224182 L98.4662,165.970667 L98.4662,165.970667 Z M112.459859,175.314727 C106.9292,176.795515 101.298976,173.853212 99.1920588,168.684909 L120.6338,162.938424 C121.394988,168.469697 117.990518,173.830727 112.459859,175.314727 L112.459859,175.314727 Z M120.6338,126.622182 L99.1920588,120.875697 C101.298976,115.707394 106.9292,112.765091 112.459859,114.245879 C117.990518,115.729879 121.394988,121.090909 120.6338,126.622182 L120.6338,126.622182 Z M274.785659,170.300606 L181.843612,144.780303 L274.785659,119.26 C279.921271,118.219273 283.788235,113.683758 283.788235,108.242424 C283.788235,102.033394 278.7554,97 272.547059,97 C266.338718,97 261.305882,102.033394 261.305882,108.242424 C261.305882,110.20503 261.855094,112.019879 262.738329,113.625939 L219.973682,124.990424 L204.582906,121.100545 C204.554,120.981697 204.557212,120.862848 204.525094,120.740788 C202.116271,111.743636 192.8696,106.405091 183.873447,108.817394 C174.880506,111.226485 169.539341,120.474182 171.951376,129.471333 C172.664388,132.13097 174.003694,134.437273 175.728412,136.348485 L171.235153,136.348485 L174.132165,150.642424 L174.247788,151.220606 L171.395741,164.425636 L171.440706,164.425636 C171.424647,171.88097 176.329012,178.722788 183.873447,180.743212 C192.8696,183.152303 202.116271,177.813758 204.525094,168.819818 C204.557212,168.697758 204.554,168.578909 204.582906,168.460061 L219.973682,164.570182 L262.738329,175.934667 C261.855094,177.537515 261.305882,179.355576 261.305882,181.318182 C261.305882,187.527212 266.338718,192.560606 272.547059,192.560606 C278.7554,192.560606 283.788235,187.527212 283.788235,181.318182 C283.788235,175.876848 279.921271,171.341333 274.785659,170.300606 L274.785659,170.300606 Z M272.547059,102.621212 C275.649624,102.621212 278.167647,105.136303 278.167647,108.242424 C278.167647,111.345333 275.649624,113.863636 272.547059,113.863636 C269.444494,113.863636 266.926471,111.345333 266.926471,108.242424 C266.926471,105.136303 269.444494,102.621212 272.547059,102.621212 L272.547059,102.621212 Z M199.322035,123.589939 C200.083224,129.121212 196.678753,134.482242 191.148094,135.966242 C185.617435,137.44703 179.987212,134.504727 177.880294,129.336424 L199.322035,123.589939 L199.322035,123.589939 Z M185.328376,114.245879 C190.862247,112.765091 196.489259,115.707394 198.596176,120.875697 L177.154435,126.622182 C176.393247,121.090909 179.797718,115.729879 185.328376,114.245879 L185.328376,114.245879 Z M185.328376,175.314727 C179.797718,173.830727 176.393247,168.469697 177.154435,162.938424 L198.596176,168.684909 C196.489259,173.853212 190.862247,176.795515 185.328376,175.314727 L185.328376,175.314727 Z M199.322035,165.970667 L177.880294,160.224182 C179.987212,155.055879 185.617435,152.113576 191.148094,153.594364 C196.678753,155.078364 200.083224,160.439394 199.322035,165.970667 L199.322035,165.970667 Z M272.547059,186.939394 C269.444494,186.939394 266.926471,184.424303 266.926471,181.318182 C266.926471,178.215273 269.444494,175.69697 272.547059,175.69697 C275.649624,175.69697 278.167647,178.215273 278.167647,181.318182 C278.167647,184.424303 275.649624,186.939394 272.547059,186.939394 L272.547059,186.939394 Z M132.832082,119.484848 L126.180518,151.201333 L131.874976,181.465939 L138.770635,164.454545 L159.0176,164.454545 L165.890776,181.408121 L171.376471,151.201333 L164.949729,119.484848 L132.832082,119.484848 L132.832082,119.484848 Z M133.859847,141.969697 L136.721529,128.318182 L138.568294,141.969697 L133.859847,141.969697 L133.859847,141.969697 Z M156.367894,141.969697 L141.407494,141.969697 L139.123929,125.106061 L158.651459,125.106061 L156.367894,141.969697 L156.367894,141.969697 Z M159.207094,141.969697 L161.034588,128.472364 L163.771012,141.969697 L159.207094,141.969697 L159.207094,141.969697 Z M140.665576,167.265152 L132.835294,186.573212 L137.139059,198.181818 L160.649176,198.181818 L164.952941,186.573212 L157.122659,167.265152 L140.665576,167.265152 L140.665576,167.265152 Z M144.680282,170.075758 L153.111165,170.075758 L153.111165,178.507576 L144.680282,178.507576 L144.680282,170.075758 Z" id="Imported-Layers" fill="#264A62" sketch:type="MSShapeGroup"></path>
        </g>
    </g>
</svg>