<?xml version="1.0" encoding="UTF-8" standalone="no"?>
<svg width="300px" height="300px" viewBox="0 0 300 300" version="1.1" xmlns="http://www.w3.org/2000/svg" xmlns:xlink="http://www.w3.org/1999/xlink" xmlns:sketch="http://www.bohemiancoding.com/sketch/ns">
    <!-- Generator: Sketch 3.3.2 (12043) - http://www.bohemiancoding.com/sketch -->
    <title>yoda</title>
    <desc>Created with Sketch.</desc>
    <defs></defs>
    <g id="Page-1" stroke="none" stroke-width="1" fill="none" fill-rule="evenodd" sketch:type="MSPage">
        <g id="yoda" sketch:type="MSArtboardGroup">
            <rect id="Rectangle-1" fill="#FFFFFF" sketch:type="MSShapeGroup" x="0" y="0" width="300" height="300"></rect>
            <path d="M188.539699,88.5953084 L186.514932,87.1463084 L177.191205,105.691073 L171.712904,102.967602 L181.314219,83.8708378 C172.762027,79.4223672 163.136219,78.4726025 153.020548,82.8886025 L153.020548,104.327308 L146.89726,104.327308 L146.89726,82.6775437 C137.585781,78.1966025 127.939562,79.6293672 119.081205,84.8246613 L128.204904,102.967602 L122.726603,105.691073 L114.002959,88.3436613 C97.0536986,101.417132 84.0804932,127.462602 84.0804932,149.059602 C84.0804932,175.819426 100.654192,195.772602 124.216603,202.981073 L127.629315,199.587897 L138.98189,213.939897 L160.935918,213.939897 L172.288493,199.587897 L175.742027,203.02572 L176.415589,202.78625 C199.602438,195.492544 215.837315,175.547485 215.837315,149.059602 C215.837315,127.641191 204.917452,101.778367 188.539699,88.5953084 L188.539699,88.5953084 Z M177.513699,137.812602 C180.897836,137.812602 183.636986,140.536073 183.636986,143.900838 C183.636986,145.037308 183.241014,146.039838 182.698082,146.944955 L172.329315,146.944955 C171.786384,146.039838 171.390411,145.037308 171.390411,143.900838 C171.390411,140.536073 174.129562,137.812602 177.513699,137.812602 L177.513699,137.812602 Z M149.958904,142.378779 C157.551781,142.378779 163.736301,147.160073 163.736301,153.033191 C163.736301,153.873367 163.046411,154.55525 162.205479,154.55525 C161.364548,154.55525 160.674658,153.873367 160.674658,153.033191 C160.674658,148.836367 155.865836,145.422897 149.958904,145.422897 C144.051973,145.422897 139.243151,148.836367 139.243151,153.033191 C139.243151,153.873367 138.55326,154.55525 137.712329,154.55525 C136.871397,154.55525 136.181507,153.873367 136.181507,153.033191 C136.181507,147.160073 142.366027,142.378779 149.958904,142.378779 L149.958904,142.378779 Z M122.40411,137.812602 C125.788247,137.812602 128.527397,140.536073 128.527397,143.900838 C128.527397,145.037308 128.131425,146.039838 127.588493,146.944955 L117.219726,146.944955 C116.676795,146.039838 116.280822,145.037308 116.280822,143.900838 C116.280822,140.536073 119.019973,137.812602 122.40411,137.812602 L122.40411,137.812602 Z M183.49411,178.303426 C182.983836,179.894485 181.29789,180.799602 179.652767,180.288191 C179.497644,180.247602 162.862712,175.234955 152.110219,185.787897 C151.90611,185.990838 151.657096,186.112602 151.416247,186.246544 C151.31011,186.303367 151.220301,186.400779 151.110082,186.445426 C150.742685,186.591544 150.350795,186.668661 149.958904,186.668661 C149.567014,186.668661 149.175123,186.591544 148.807726,186.445426 C148.697507,186.400779 148.607699,186.303367 148.501562,186.246544 C148.260712,186.112602 148.011699,185.990838 147.807589,185.787897 C137.046932,175.230897 120.420164,180.239485 120.265041,180.288191 C118.648493,180.80772 116.938055,179.894485 116.423699,178.303426 C115.917507,176.696132 116.807425,174.991426 118.415808,174.484073 C119.203671,174.244602 136.716274,168.923485 149.958904,179.581955 C163.205616,168.919426 180.722301,174.244602 181.502,174.484073 C183.110384,174.991426 184.000301,176.696132 183.49411,178.303426 L183.49411,178.303426 Z M82.4312877,124.597073 C79.6431507,132.812132 77.9572055,141.193602 77.9572055,149.059602 C77.9572055,155.813485 78.99,162.279191 80.8882192,168.339014 C77.4020274,169.654073 73.4096438,170.640367 68.878411,170.640367 C68.878411,170.640367 53.6763288,170.640367 33.4041644,144.420367 C33.4041644,144.420367 18.2020822,123.440308 3,123.440308 C3,123.440308 8.07008219,107.708308 38.4701644,118.196308 C38.4742466,118.196308 62.195863,127.328661 82.4312877,124.597073 L82.4312877,124.597073 Z M296.917808,123.440308 C281.715726,123.440308 266.513644,144.420367 266.513644,144.420367 C246.241479,170.640367 231.039397,170.640367 231.039397,170.640367 C226.548986,170.640367 222.585178,169.670308 219.119397,168.375544 C220.96863,162.331955 221.960603,155.858132 221.960603,149.059602 C221.960603,141.096191 220.482849,132.771544 218.02537,124.670132 C238.138329,127.174426 261.447644,118.196308 261.447644,118.196308 C291.847726,107.708308 296.917808,123.440308 296.917808,123.440308 L296.917808,123.440308 Z" id="Imported-Layers" fill="#264A62" sketch:type="MSShapeGroup"></path>
        </g>
    </g>
</svg>